<svg width="549" height="524" viewBox="0 0 549 524" fill="none" xmlns="http://www.w3.org/2000/svg">
<rect x="482.35" y="277.35" width="66.3" height="98.3" rx="2.65" stroke="#20243C" stroke-width="0.7"/>
<path d="M504 376V398C504 399.657 505.343 401 507 401H523C524.657 401 526 399.657 526 398V376" stroke="#20243C" stroke-width="0.7"/>
<path d="M507 401V524M523 401V524" stroke="#20243C" stroke-width="0.7"/>
<path d="M537 277V259C537 257.343 535.657 256 534 256H497C495.343 256 494 257.343 494 259V277" stroke="#20243C" stroke-width="0.7"/>
<rect x="501.25" y="256.25" width="6.5" height="10.5" rx="0.75" stroke="#20243C" stroke-width="0.5"/>
<rect x="523.25" y="256.25" width="6.5" height="10.5" rx="0.75" stroke="#20243C" stroke-width="0.5"/>
<rect x="0.35" y="0.35" width="402.3" height="523.3" rx="24.65" stroke="#20243C" stroke-width="0.7"/>
<rect x="26.35" y="22.35" width="349.3" height="439.3" stroke="#20243C" stroke-width="0.7"/>
</svg>